<svg width="339" height="68" viewBox="0 0 339 68" fill="none" xmlns="http://www.w3.org/2000/svg">
<path d="M87.04 37.35C87.04 36.01 87.3869 34.804 88.0807 33.732C88.7744 32.66 89.7225 31.8113 90.925 31.186C92.1275 30.5607 93.4225 30.248 94.81 30.248C95.7812 30.248 96.8218 30.4043 97.9318 30.717C99.0418 30.985 100.106 31.4317 101.123 32.057C102.187 32.6823 103.042 33.4863 103.69 34.469V23.615C102.58 22.9897 101.262 22.4537 99.7356 22.007C98.2093 21.5157 96.1975 21.27 93.7 21.27C90.0463 21.27 86.7857 21.94 83.9182 23.28C81.0507 24.5753 78.7845 26.429 77.1195 28.841C75.5007 31.2083 74.6914 34.0447 74.6914 37.35C74.6914 40.6107 75.5007 43.447 77.1195 45.859C78.7845 48.271 81.0507 50.147 83.9182 51.487C86.7857 52.7823 90.0463 53.43 93.7 53.43C96.1975 53.43 98.2093 53.2067 99.7356 52.76C101.262 52.2687 102.58 51.688 103.69 51.018V40.164C103.042 41.102 102.233 41.906 101.262 42.576C100.337 43.2013 99.3193 43.6703 98.2093 43.983C97.0993 44.2957 95.9662 44.452 94.81 44.452C93.4225 44.452 92.1275 44.184 90.925 43.648C89.7225 43.0673 88.7744 42.241 88.0807 41.169C87.3869 40.097 87.04 38.824 87.04 37.35Z" fill="#AFBCD4"/>
<path d="M161.484 41.035L157.114 48.941C158.779 49.9683 160.513 50.884 162.317 51.688C164.12 52.492 166.04 53.1173 168.075 53.564C170.156 54.0107 172.376 54.234 174.735 54.234C178.666 54.234 181.695 53.4077 183.823 51.755C185.997 50.1023 187.083 47.534 187.083 44.05C187.083 42.1293 186.644 40.5883 185.765 39.427C184.933 38.2657 183.823 37.3277 182.435 36.613C181.094 35.8537 179.614 35.1837 177.995 34.603C176.284 33.9777 174.874 33.4863 173.764 33.129C172.654 32.7717 171.821 32.4143 171.266 32.057C170.711 31.655 170.434 31.1413 170.434 30.516C170.434 30.0693 170.619 29.6897 170.989 29.377C171.405 29.0643 172.052 28.908 172.931 28.908C174.319 28.908 175.914 29.31 177.718 30.114C179.568 30.8733 181.233 31.8783 182.713 33.129L186.251 25.424C184.817 24.62 183.36 23.9277 181.88 23.347C180.4 22.7217 178.828 22.2303 177.163 21.873C175.544 21.471 173.787 21.27 171.89 21.27C169.439 21.27 167.289 21.6273 165.439 22.342C163.589 23.012 162.132 24.017 161.068 25.357C160.004 26.6523 159.472 28.2603 159.472 30.181C159.472 32.191 159.889 33.8437 160.721 35.139C161.6 36.3897 162.733 37.3947 164.12 38.154C165.508 38.8687 166.965 39.4717 168.491 39.963C170.341 40.5437 171.729 41.035 172.654 41.437C173.625 41.839 174.272 42.241 174.596 42.643C174.966 43.0003 175.151 43.447 175.151 43.983C175.151 44.6083 174.943 45.0997 174.527 45.457C174.11 45.8143 173.463 45.993 172.584 45.993C172.029 45.993 171.243 45.8813 170.225 45.658C169.208 45.4347 167.982 44.9657 166.549 44.251C165.115 43.5363 163.427 42.4643 161.484 41.035Z" fill="#AFBCD4"/>
<path fill-rule="evenodd" clip-rule="evenodd" d="M0 31.32V21.94H5.75808V31.32H0ZM17.2049 31.32H5.75808V52.76H17.2049V31.32ZM17.2049 21.94H5.75808V11.22H17.2049V21.94ZM17.2049 21.94V31.32H22.963V21.94H17.2049Z" fill="#AFBCD4"/>
<path d="M5.75808 21.94V31.32H17.2049V21.94H5.75808Z" fill="#AFBCD4"/>
<path fill-rule="evenodd" clip-rule="evenodd" d="M59.3721 51.085C56.4584 52.6483 52.874 53.43 48.619 53.43C44.6878 53.43 41.2885 52.7823 38.421 51.487C35.5998 50.147 33.426 48.2933 31.8998 45.926C30.3736 43.514 29.6104 40.6553 29.6104 37.35C29.6104 34 30.3504 31.1413 31.8304 28.774C33.3104 26.362 35.4379 24.5083 38.2129 23.213C40.9878 21.9177 44.3178 21.27 48.2028 21.27C52.0878 21.27 55.3484 21.873 57.9846 23.079C60.6208 24.285 62.6327 26.0493 64.0202 28.372C65.4077 30.65 66.1014 33.464 66.1014 36.814C66.1014 37.35 66.0783 37.886 66.032 38.422C66.032 38.9133 66.0089 39.36 65.9627 39.762H41.8311C41.7076 39.0068 41.6578 38.1805 41.6816 37.283C41.6816 36.0547 41.7719 34.9659 41.9526 34.0168C41.9666 33.9433 41.9811 33.8707 41.9961 33.799H53.3079C53.2331 32.8673 53.0113 32.0633 52.6428 31.387C52.2265 30.4937 51.6021 29.8237 50.7696 29.377C49.9834 28.8857 49.0353 28.64 47.9253 28.64C46.5378 28.64 45.3816 28.9527 44.4566 29.578C43.5316 30.2033 42.8378 31.1637 42.3753 32.459C42.2243 32.8675 42.0979 33.3142 41.9961 33.799H36.201V39.762H41.8311C41.9473 40.4727 42.1287 41.1203 42.3753 41.705C42.8841 42.911 43.6241 43.849 44.5953 44.519C45.5666 45.1443 46.7691 45.457 48.2028 45.457C49.9603 45.457 51.4403 45.1667 52.6428 44.586C53.8915 43.9607 54.8627 43.0673 55.5565 41.906L66.3789 43.983C64.6677 47.1543 62.3321 49.5217 59.3721 51.085Z" fill="#AFBCD4"/>
<path d="M36.201 33.799V39.762H41.8311C41.7076 39.0068 41.6578 38.1805 41.6816 37.283C41.6816 36.0547 41.7719 34.9659 41.9526 34.0168C41.9666 33.9433 41.9811 33.8707 41.9961 33.799H36.201Z" fill="#AFBCD4"/>
<path fill-rule="evenodd" clip-rule="evenodd" d="M115.14 0.5H127.142V25.9545C126.91 26.381 126.701 26.8295 126.517 27.3C125.731 29.31 125.338 31.5433 125.338 34H127.142V52.76H115.14V0.5ZM127.142 34V25.9545C127.901 24.5592 128.919 23.3997 130.194 22.476C131.905 21.27 134.149 20.667 136.924 20.667C139.699 20.667 141.872 21.1137 143.445 22.007C145.017 22.9003 146.15 24.218 146.844 25.96C147.538 27.6573 147.885 29.7567 147.885 32.258V52.76H135.883V34C135.883 32.392 135.605 31.1637 135.05 30.315C134.495 29.4217 133.432 28.975 131.859 28.975C130.934 28.975 130.102 29.176 129.362 29.578C128.668 29.9353 128.113 30.4937 127.697 31.253C127.327 31.9677 127.142 32.8833 127.142 34Z" fill="#AFBCD4"/>
<path d="M126.517 27.3C125.731 29.31 125.338 31.5433 125.338 34H127.142V25.9545C126.91 26.381 126.701 26.8295 126.517 27.3Z" fill="#AFBCD4"/>
<path fill-rule="evenodd" clip-rule="evenodd" d="M193.097 31.32V21.94H198.855V31.32H193.097ZM210.302 31.32H198.855V52.76H210.302V31.32ZM210.302 21.94H198.855V11.22H210.302V21.94ZM210.302 21.94V31.32H216.06V21.94H210.302Z" fill="#AFBCD4"/>
<path d="M198.855 21.94V31.32H210.302V21.94H198.855Z" fill="#AFBCD4"/>
<path fill-rule="evenodd" clip-rule="evenodd" d="M236.096 25.8584V38.623C236.096 37.149 236.305 35.9207 236.721 34.938C237.183 33.9553 237.808 33.2183 238.594 32.727C239.38 32.2357 240.236 31.99 241.161 31.99C242.086 31.99 242.849 32.1687 243.45 32.526C244.098 32.8387 244.676 33.263 245.185 33.799L250.18 23.816C249.671 23.0567 248.885 22.4313 247.821 21.94C246.757 21.404 245.647 21.136 244.491 21.136C242.641 21.136 240.86 21.7167 239.149 22.878C237.969 23.6695 236.951 24.6629 236.096 25.8584Z" fill="#AFBCD4"/>
<path d="M236.096 21.94H224.372V52.76H236.096V38.623L233.599 34C233.599 31.5433 234.108 29.3547 235.125 27.434C235.422 26.8747 235.745 26.3495 236.096 25.8584V21.94Z" fill="#AFBCD4"/>
<path d="M235.125 27.434C234.108 29.3547 233.599 31.5433 233.599 34L236.096 38.623V25.8584C235.745 26.3495 235.422 26.8747 235.125 27.434Z" fill="#AFBCD4"/>
<path fill-rule="evenodd" clip-rule="evenodd" d="M268.678 41.504C268.4 41.906 268.261 42.442 268.261 43.112C268.261 43.782 268.423 44.3627 268.747 44.854C269.117 45.3007 269.603 45.658 270.204 45.926C270.805 46.1493 271.453 46.261 272.146 46.261C273.164 46.261 274.135 46.06 275.06 45.658C275.985 45.2113 276.725 44.5413 277.28 43.648C277.732 42.9424 278.014 42.1103 278.127 41.1519C277.77 41.0092 277.396 40.8809 277.003 40.767C275.615 40.365 274.158 40.164 272.632 40.164C271.568 40.164 270.713 40.2757 270.065 40.499C269.418 40.7223 268.955 41.0573 268.678 41.504ZM278.182 48.4957C278.035 48.7414 277.873 48.9792 277.696 49.209C276.679 50.5937 275.268 51.6433 273.464 52.358C271.707 53.0727 269.764 53.43 267.637 53.43C265.602 53.43 263.706 53.0727 261.948 52.358C260.237 51.5987 258.85 50.5043 257.786 49.075C256.722 47.601 256.19 45.8143 256.19 43.715C256.19 40.767 257.254 38.4443 259.381 36.747C261.555 35.0497 264.677 34.201 268.747 34.201C270.504 34.201 272.146 34.3573 273.673 34.67C275.245 34.9827 276.609 35.407 277.766 35.943C277.909 36.0014 278.047 36.0608 278.182 36.1211V40.164L278.498 41.3089C279.244 41.6411 279.901 42.0411 280.471 42.509V37.618C279.945 37.0708 279.189 36.575 278.202 36.1304C278.196 36.1273 278.189 36.1242 278.182 36.1211V33.933C278.182 33.263 278.066 32.66 277.835 32.124C277.65 31.588 277.326 31.1413 276.864 30.784C276.401 30.382 275.8 30.0917 275.06 29.913C274.32 29.6897 273.464 29.578 272.493 29.578C271.152 29.578 269.764 29.7343 268.331 30.047C266.943 30.3597 265.718 30.717 264.654 31.119C263.59 31.521 262.85 31.8337 262.434 32.057L258.618 24.486C260.653 23.6373 262.989 22.8557 265.625 22.141C268.308 21.3817 271.152 21.002 274.158 21.002C277.072 21.002 279.685 21.404 281.997 22.208C284.356 22.9673 286.206 24.1063 287.547 25.625C288.935 27.1437 289.629 28.9973 289.629 31.186V52.76H278.182V48.4957Z" fill="#AFBCD4"/>
<path d="M280.471 42.509V37.618C279.945 37.0708 279.189 36.575 278.202 36.1304L278.182 36.1211V40.164L278.498 41.3089C279.244 41.6411 279.901 42.0411 280.471 42.509Z" fill="#AFBCD4"/>
<path fill-rule="evenodd" clip-rule="evenodd" d="M313.123 47.9781V67.5H301.122V21.94H313.123V26.7219C312.765 27.3199 312.442 27.9593 312.152 28.64C311.135 31.0967 310.626 34 310.626 37.35C310.626 40.6553 311.135 43.5587 312.152 46.06C312.418 46.6853 312.713 47.2758 313.037 47.8313C313.065 47.8805 313.094 47.9295 313.123 47.9781ZM313.123 37.35V26.7219C314.081 25.1225 315.283 23.8188 316.731 22.811C318.766 21.4263 321.194 20.734 324.015 20.734C326.559 20.734 328.964 21.3593 331.23 22.61C333.496 23.8607 335.346 25.7143 336.78 28.171C338.26 30.583 339 33.6427 339 37.35C339 41.0127 338.26 44.0723 336.78 46.529C335.346 48.9857 333.496 50.8393 331.23 52.09C328.964 53.3407 326.559 53.966 324.015 53.966C321.194 53.966 318.766 53.2737 316.731 51.889C315.283 50.8812 314.081 49.5775 313.123 47.9781V37.35ZM313.123 37.35C313.123 35.876 313.447 34.67 314.095 33.732C314.742 32.794 315.551 32.1017 316.523 31.655C317.54 31.1637 318.581 30.918 319.645 30.918C320.893 30.918 322.026 31.1637 323.044 31.655C324.061 32.1463 324.871 32.8833 325.472 33.866C326.073 34.804 326.374 35.9653 326.374 37.35C326.374 38.69 326.073 39.8513 325.472 40.834C324.871 41.8167 324.061 42.5537 323.044 43.045C322.026 43.5363 320.893 43.782 319.645 43.782C318.581 43.782 317.54 43.5587 316.523 43.112C315.551 42.6207 314.742 41.906 314.095 40.968C313.447 40.03 313.123 38.824 313.123 37.35Z" fill="#AFBCD4"/>
<path d="M312.152 28.64C311.135 31.0967 310.626 34 310.626 37.35C310.626 40.6553 311.135 43.5587 312.152 46.06C312.418 46.6853 312.713 47.2758 313.037 47.8313L313.123 47.9781V37.35V26.7219C312.765 27.3199 312.442 27.9593 312.152 28.64Z" fill="#AFBCD4"/>
</svg>
